#!OML:ASF F:\VICON\USERDATA\INSTALL\rory3\rory3.ASF
:FULLY-SPECIFIED
:DEGREES
894
root -0.344126 18.5322 -0.246744 3.21258 -8.89963 -0.929328
lowerback 9.99197 2.09705 2.67007
upperback 1.09955 2.95844 -2.47922
thorax -4.18399 1.40204 -4.48672
lowerneck -12.019 -8.36877 -6.98302
upperneck 4.70789 -11.5002 15.0051
head 4.70274 -5.06284 4.81893
rclavicle -5.26779e-015 -4.77083e-015
rhumerus 43.5725 2.18382 -22.2957
rradius 65.0692
rwrist 47.3209
rhand -68.3627 20.8419
rfingers 7.12502
rthumb -40.0706 -4.36281
lclavicle -5.26779e-015 -4.77083e-015
lhumerus -25.3802 5.0372 80.1177
lradius 62.3343
lwrist 12.1591
lhand -28.8067 22.4561
lfingers 7.12502
lthumb -2.16498 52.4248
rfemur -14.896 15.3286 12.2924
rtibia 31.9891
rfoot -15.3539 -25.0565
rtoes -15.8683
lfemur -6.96632 0.616451 -5.33482
ltibia 22.5974
lfoot -12.7517 27.1562
ltoes -13.8937
895
root -0.400882 18.5405 -0.262986 3.35195 -9.18786 -0.71648
lowerback 10.0569 1.98469 2.70344
upperback 1.09389 2.81617 -2.42335
thorax -4.24082 1.32967 -4.43256
lowerneck -11.8978 -8.39927 -6.93982
upperneck 4.54414 -11.5246 14.9289
head 4.62754 -5.08959 4.79117
rclavicle 3.73715e-014 1.19271e-015
rhumerus 42.7927 1.47699 -22.3233
rradius 64.62
rwrist 47.6914
rhand -68.3397 21.6067
rfingers 7.12502
rthumb -40.0489 -3.6046
lclavicle 3.73715e-014 1.19271e-015
lhumerus -25.1093 4.47214 80.49
lradius 62.3948
lwrist 12.3644
lhand -30.0882 23.4471
lfingers 7.12502
lthumb -3.4026 53.3997
rfemur -15.1079 15.3572 12.1801
rtibia 31.8035
rfoot -15.3112 -24.9208
rtoes -15.6831
lfemur -6.89031 0.517074 -5.38939
ltibia 22.2457
lfoot -12.4678 27.4994
ltoes -14.0906
896
root -0.456728 18.5531 -0.27664 3.49934 -9.48197 -0.658593
lowerback 10.0396 1.87797 2.94473
upperback 1.15169 2.70352 -2.35907
thorax -4.17319 1.27288 -4.48452
lowerneck -11.892 -8.40421 -6.89459
upperneck 4.43011 -11.5254 14.9386
head 4.59023 -5.09349 4.78813
rclavicle -1.11319e-014 5.96354e-015
rhumerus 42.0065 0.694291 -22.3555
rradius 64.1013
rwrist 48.073
rhand -68.9339 14.9707
rfingers 7.12502
rthumb -40.6077 -10.0691
lclavicle -1.11319e-014 5.96354e-015
lhumerus -24.7003 3.83507 80.8443
lradius 62.4758
lwrist 12.5159
lhand -31.2784 24.9386
lfingers 7.12502
lthumb -4.55195 54.8697
rfemur -15.2683 15.4025 12.2412
rtibia 31.6032
rfoot -15.32 -24.7666
rtoes -15.3969
lfemur -6.79974 0.444961 -5.26748
ltibia 21.8944
lfoot -12.0635 27.8068
ltoes -13.8683
897
root -0.511401 18.5721 -0.290159 3.61838 -9.72901 -0.519807
lowerback 10.0654 1.75176 3.1077
upperback 1.15342 2.55789 -2.27938
thorax -4.19638 1.19793 -4.47583
lowerneck -11.7391 -8.41106 -7.06226
upperneck 4.39919 -11.5273 15.0872
head 4.5759 -5.09837 4.86616
rclavicle -4.07509e-015 9.93923e-015
rhumerus 41.2281 0.0512189 -22.2724
rradius 63.5873
rwrist 47.8146
rhand -69.5542 9.46059
rfingers 7.12502
rthumb -41.1904 -15.395
lclavicle -4.07509e-015 9.93923e-015
lhumerus -24.5688 3.19072 81.235
lradius 62.7081
lwrist 12.7204
lhand -32.4254 26.4171
lfingers 7.12502
lthumb -5.65945 56.3215
rfemur -15.3734 15.3593 12.2374
rtibia 31.3701
rfoot -15.1715 -24.5869
rtoes -15.4691
lfemur -6.75977 0.200205 -5.24381
ltibia 21.5748
lfoot -11.7723 28.2886
ltoes -13.1836
898
root -0.56675 18.5864 -0.308569 3.70892 -9.89664 -0.222755
lowerback 10.2133 1.58652 3.07889
upperback 1.09326 2.34102 -2.22143
thorax -4.36672 1.0858 -4.37928
lowerneck -11.4578 -8.40442 -7.26281
upperneck 4.30887 -11.5023 15.2154
head 4.51949 -5.09965 4.95099
rclavicle -2.42517e-014 9.93923e-015
rhumerus 40.5392 -0.571548 -22.2682
rradius 63.0162
rwrist 47.3463
rhand -69.3436 13.4312
rfingers 7.12502
rthumb -40.9926 -11.4875
lclavicle -2.42517e-014 9.93923e-015
lhumerus -24.4662 2.57927 81.5809
lradius 62.9167
lwrist 12.9575
lhand -32.3377 26.3198
lfingers 7.12502
lthumb -5.5748 56.2264
rfemur -15.4321 15.3653 12.0642
rtibia 31.1016
rfoot -15.2747 -24.4681
rtoes -14.9761
lfemur -6.738 -0.0209966 -5.37996
ltibia 21.2516
lfoot -11.4897 28.6043
ltoes -12.4669
899
root -0.619706 18.597 -0.325089 3.81972 -10.0771 -0.0119352
lowerback 10.3211 1.41274 3.20895
upperback 1.07546 2.12862 -2.19202
thorax -4.46232 0.975676 -4.39931
lowerneck -11.2428 -8.39786 -7.39675
upperneck 4.19605 -11.4875 15.3929
head 4.46829 -5.10057 5.03745
rclavicle 1.74434e-014 -4.77083e-015
rhumerus 39.8861 -1.34902 -22.4976
rradius 62.3923
rwrist 47.3038
rhand -68.908 9.93845
rfingers 7.12502
rthumb -40.5834 -15.1089
lclavicle 1.74434e-014 -4.77083e-015
lhumerus -24.1281 2.01362 81.818
lradius 62.9604
lwrist 13.0451
lhand -30.8982 24.816
lfingers 7.12502
lthumb -4.18481 54.7546
rfemur -15.5254 15.4657 11.9694
rtibia 30.8235
rfoot -15.2736 -24.5419
rtoes -14.7124
lfemur -6.70848 -0.200796 -5.43596
ltibia 20.9417
lfoot -10.9184 28.8777
ltoes -12.5146
900
root -0.671543 18.6077 -0.341436 3.91084 -10.3442 0.161081
lowerback 10.3821 1.25433 3.34313
upperback 1.12277 1.93831 -2.11442
thorax -4.46361 0.880295 -4.36945
lowerneck -11.1202 -8.37568 -7.52648
upperneck 4.07582 -11.4384 15.4866
head 4.41995 -5.08475 5.09782
rclavicle -2.45499e-014 -1.15295e-014
rhumerus 39.437 -2.22448 -22.7665
rradius 61.6071
rwrist 47.3688
rhand -68.4905 3.76851
rfingers 7.12502
rthumb -40.1908 -21.3997
lclavicle -2.45499e-014 -1.15295e-014
lhumerus -23.7185 1.51318 82.1284
lradius 62.9978
lwrist 13.062
lhand -30.0117 24.4876
lfingers 7.12502
lthumb -3.3288 54.4413
rfemur -15.6303 15.6529 11.9183
rtibia 30.5474
rfoot -15.1083 -24.6443
rtoes -14.6225
lfemur -6.63571 -0.407718 -5.45149
ltibia 20.664
lfoot -10.7293 29.1924
ltoes -11.6978
901
root -0.724473 18.617 -0.362184 4.00718 -10.537 0.303797
lowerback 10.5468 1.10311 3.44924
upperback 1.12401 1.75968 -1.99581
thorax -4.57225 0.787926 -4.28651
lowerneck -11.2424 -8.38881 -7.6175
upperneck 4.20661 -11.4498 15.4463
head 4.48333 -5.08368 5.09327
rclavicle 7.30534e-015 1.13307e-014
rhumerus 39.0068 -3.06688 -22.9233
rradius 60.7032
rwrist 47.1711
rhand -68.3351 3.39092
rfingers 7.12502
rthumb -40.0446 -21.8217
lclavicle 7.30534e-015 1.13307e-014
lhumerus -23.3665 0.891775 82.5072
lradius 63.108
lwrist 13.0922
lhand -29.6468 24.5926
lfingers 7.12502
lthumb -2.97641 54.5516
rfemur -15.6887 15.8241 11.9172
rtibia 30.2603
rfoot -14.9958 -24.7361
rtoes -14.3272
lfemur -6.63137 -0.419008 -5.40358
ltibia 20.4325
lfoot -10.404 29.334
ltoes -11.3178
902
root -0.773468 18.6277 -0.380759 4.08013 -10.6844 0.587208
lowerback 10.7122 0.933974 3.48663
upperback 1.11588 1.54654 -1.94383
thorax -4.69437 0.678806 -4.22915
lowerneck -11.3579 -8.39385 -7.70131
upperneck 4.36728 -11.4602 15.4541
head 4.55765 -5.07902 5.10274
rclavicle 2.76311e-014 -2.76311e-014
rhumerus 38.5518 -3.87075 -23.0316
rradius 59.8798
rwrist 46.6462
rhand -68.1252 3.68458
rfingers 7.12502
rthumb -39.847 -21.5874
lclavicle 2.76311e-014 -2.76311e-014
lhumerus -23.0215 0.289284 82.7907
lradius 63.1931
lwrist 12.9802
lhand -29.25 24.349
lfingers 7.12502
lthumb -2.59317 54.313
rfemur -15.735 15.9379 11.7236
rtibia 29.9812
rfoot -14.9291 -24.7485
rtoes -14.2512
lfemur -6.68425 -0.561519 -5.53196
ltibia 20.2601
lfoot -9.9339 29.5745
ltoes -11.2984
903
root -0.82202 18.6408 -0.396667 4.1748 -10.8831 0.869484
lowerback 10.7045 0.763374 3.55122
upperback 1.1729 1.32803 -1.91911
thorax -4.65067 0.571817 -4.20761
lowerneck -11.4376 -8.4035 -7.76591
upperneck 4.49295 -11.4794 15.4844
head 4.61704 -5.08033 5.11671
rclavicle 1.17531e-014 -1.25234e-014
rhumerus 38.1984 -4.77356 -23.2692
rradius 59.0697
rwrist 46.0898
rhand -67.5629 2.13225
rfingers 7.12502
rthumb -39.3174 -23.2961
lclavicle 1.17531e-014 -1.25234e-014
lhumerus -22.5535 -0.441264 83.0004
lradius 63.179
lwrist 12.6106
lhand -29.2183 24.2712
lfingers 7.12502
lthumb -2.56257 54.2356
rfemur -15.8281 16.147 11.5101
rtibia 29.7145
rfoot -14.8453 -24.7596
rtoes -14.2989
lfemur -6.75039 -0.746409 -5.67333
ltibia 20.1208
lfoot -9.42836 29.8769
ltoes -11.4751
904
root -0.872432 18.6529 -0.415973 4.29038 -11.118 0.911228
lowerback 10.7083 0.622759 3.82741
upperback 1.30499 1.17653 -1.83827
thorax -4.52498 0.498037 -4.25561
lowerneck -11.6368 -8.44221 -7.77941
upperneck 4.55713 -11.5299 15.4936
head 4.67716 -5.0939 5.10899
rclavicle -3.93842e-014 3.37934e-015
rhumerus 37.8743 -5.89845 -23.6438
rradius 58.1447
rwrist 45.6513
rhand -67.2711 0.498255
rfingers 7.12502
rthumb -39.0425 -25.0096
lclavicle -3.93842e-014 3.37934e-015
lhumerus -21.9303 -1.39963 83.2275
lradius 63.1902
lwrist 12.257
lhand -29.1391 23.7769
lfingers 7.12502
lthumb -2.48604 53.7421
rfemur -15.9239 16.4959 11.5694
rtibia 29.4705
rfoot -14.8674 -24.8135
rtoes -13.8263
lfemur -6.7647 -0.734525 -5.53356
ltibia 19.9659
lfoot -8.99065 30.0012
ltoes -11.105
905
root -0.920093 18.6651 -0.437104 4.35432 -11.3162 1.08698
lowerback 10.8209 0.469298 4.00373
upperback 1.41275 0.997943 -1.79829
thorax -4.49019 0.409713 -4.28953
lowerneck -11.7441 -8.46073 -7.82942
upperneck 4.531 -11.546 15.557
head 4.69657 -5.09613 5.13164
rclavicle 2.67117e-015 -2.33075e-014
rhumerus 37.6209 -7.02552 -24.1784
rradius 57.1265
rwrist 45.2438
rhand -67.0323 0.88595
rfingers 7.12502
rthumb -38.8174 -24.6862
lclavicle 2.67117e-015 -2.33075e-014
lhumerus -21.3203 -2.2861 83.4583
lradius 63.2536
lwrist 12.2708
lhand -29.0777 22.9203
lfingers 7.12502
lthumb -2.42674 52.8863
rfemur -16.0359 16.7005 11.493
rtibia 29.2705
rfoot -14.6438 -24.928
rtoes -14.0052
lfemur -6.79492 -0.72845 -5.54453
ltibia 19.8112
lfoot -8.42908 30.1399
ltoes -10.9429
